<svg width="1022" height="654" viewBox="0 0 1022 654" fill="none" xmlns="http://www.w3.org/2000/svg">
<g opacity="0.2">
<path d="M1 37.1448L324.059 129.728L344.352 322.272L549.694 428.69L756.189 321.119L773.368 129.497L1097.35 37.1448L1060.8 157.975L857.765 229.92L1025.87 242.487L962.685 349.712L829.402 369.197L893.161 407.822L725.405 479.651L759.648 502.595L662.684 564.163L628.441 553.902L648.964 598.406L550.04 653.172L453.883 599.559L471.062 556.208L439.01 564.163L337.549 501.442L369.832 479.651L202.884 407.822L273.675 369.082L137.856 349.712L66.0268 242.487L235.973 229.92L42.0454 159.128L1 37.1448Z" fill="#EFCEFF" stroke="#A82DE7"/>
<path d="M370.293 181.17L505.536 370.371L390.816 297.734L370.293 181.17Z" fill="#EFCEFF" stroke="#A82DE7"/>
<path d="M725.175 181.401L588.664 370.14L703.96 297.85L725.175 181.401Z" fill="#EFCEFF" stroke="#A82DE7"/>
<path d="M369.948 2V128.48L549.233 381.209L725.521 128.48V2L667.988 97.811H430.363L369.948 2Z" fill="#EFCEFF" stroke="#A82DE7"/>
</g>
</svg>
